<?xml version="1.0" standalone="no"?>
<!DOCTYPE svg PUBLIC "-//W3C//DTD SVG 20010904//EN"
 "http://www.w3.org/TR/2001/REC-SVG-20010904/DTD/svg10.dtd">
<svg version="1.0" xmlns="http://www.w3.org/2000/svg"
 width="160.000000pt" height="160.000000pt" viewBox="0 0 160.000000 160.000000"
 preserveAspectRatio="xMidYMid meet">
<metadata>
Created by potrace 1.11, written by Peter Selinger 2001-2013
</metadata>
<g transform="translate(0.000000,160.000000) scale(0.100000,-0.100000)"
fill="#000000" stroke="none">
<path d="M1195 1086 c-92 -29 -158 -87 -198 -175 -31 -66 -29 -179 2 -243 29
-57 80 -111 139 -145 39 -23 57 -27 131 -27 99 -1 153 20 216 82 31 31 85 118
85 137 0 3 -89 5 -199 5 l-199 0 -4 -25 c-3 -14 0 -29 6 -33 6 -5 75 -8 153
-7 125 0 140 -1 130 -15 -19 -24 -39 -38 -87 -61 -91 -44 -205 -18 -274 63
-131 152 -22 388 179 388 89 0 178 -55 211 -130 10 -22 20 -40 23 -41 36 -5
53 -4 57 3 9 14 -42 111 -77 147 -70 71 -202 105 -294 77z"/>
<path d="M42 1082 c-9 -3 -12 -75 -12 -293 l0 -289 30 0 c17 0 30 3 31 8 0 4
1 38 2 76 l2 70 80 1 c44 1 98 8 120 15 95 30 148 103 146 202 -1 95 -48 162
-139 198 -30 12 -232 22 -260 12z m261 -79 c52 -31 72 -67 72 -133 0 -119 -82
-165 -266 -151 -15 1 -17 19 -16 149 0 81 1 149 3 152 1 3 41 4 89 3 62 -2 96
-8 118 -20z"/>
<path d="M505 1082 c-3 -3 -5 -135 -5 -294 l0 -289 32 3 32 3 0 255 c-1 140 3
257 7 260 4 3 42 5 84 3 134 -3 198 -57 194 -162 -4 -97 -64 -141 -193 -143
-36 -1 -66 -2 -66 -4 0 -1 48 -50 108 -108 102 -101 109 -106 150 -106 23 0
42 2 42 5 0 3 -34 37 -75 77 l-76 71 46 23 c89 43 126 98 127 192 2 93 -44
163 -131 199 -34 14 -264 26 -276 15z"/>
</g>
</svg>
